<svg version="1.1" viewBox="0.0 0.0 366.18635170603676 121.48818897637796" fill="none" stroke="none" stroke-linecap="square" stroke-miterlimit="10" xmlns:xlink="http://www.w3.org/1999/xlink" xmlns="http://www.w3.org/2000/svg"><clipPath id="p.0"><path d="m0 0l366.18634 0l0 121.48819l-366.18634 0l0 -121.48819z" clip-rule="nonzero"/></clipPath><g clip-path="url(#p.0)"><path fill="#000000" fill-opacity="0.0" d="m0 0l366.18634 0l0 121.48819l-366.18634 0z" fill-rule="evenodd"/><path fill="#000000" fill-opacity="0.0" d="m4.485564 0l372.6929 0l0 100.18898l-372.6929 0z" fill-rule="evenodd"/><path fill="#000000" d="m52.28244 58.140625q0.859375 0 1.359375 0.796875q0.5 0.796875 0.5 2.203125q0 2.65625 -1.265625 4.125q-2.859375 3.53125 -6.171875 5.796875q-3.296875 2.265625 -7.484375 2.265625q-3.53125 0 -5.734375 -2.53125q-3.796875 2.46875 -7.9375 2.53125q-0.859375 12.875 -3.9375 21.5q-3.0625 8.640625 -8.984376 8.640625q-3.609375 0 -5.34375 -2.609375q-1.734375 -2.59375 -1.734375 -7.203125q0 -6.53125 3.0 -15.234375q3.0 -8.6875 9.265626 -19.15625q0 -9.734375 -0.125 -13.53125q-0.078125 -1.9375 1.515625 -3.0625q1.609375 -1.140625 4.015625 -1.140625q1.390625 0 2.015625 0.578125q0.640625 0.5625 0.71875 2.234375q0 1.65625 0.0625 2.453125q2.140625 -2.65625 4.203125 -3.8125q2.0625 -1.171875 4.390625 -1.171875q3.734375 0 6.09375 3.0q2.375 2.984375 2.375 7.859375q0 3.53125 -1.140625 6.875q-1.125 3.328125 -3.125 6.046875q1.40625 0.40625 2.328125 0.40625q2.203125 0 4.203125 -1.59375q2.0 -1.609375 5.140625 -5.34375q0.796875 -0.921875 1.796875 -0.921875zm-26.40625 8.796875q2.40625 -0.53125 4.4375 -2.625q2.03125 -2.109375 3.234375 -5.203125q1.203125 -3.109375 1.203125 -6.5q0 -2.0 -0.8125 -3.03125q-0.796875 -1.046875 -2.125 -1.046875q-2.390625 0 -5.796875 5.078125q-0.0625 2.921875 -0.0625 8.59375q0 3.0625 -0.078125 4.734375zm-12.718751 29.984375q1.796875 0 2.984376 -7.828125q1.203125 -7.828125 1.546875 -19.5q-2.875001 6.671875 -4.531251 12.734375q-1.671875 6.0625 -1.671875 10.203125q0 2.125 0.5 3.25q0.5 1.140625 1.171875 1.140625zm58.92108 -54.984375q1.53125 0 2.125 0.40625q0.609375 0.390625 0.609375 1.328125q0 1.59375 -1.734375 11.390625q-1.53125 9.40625 -1.796875 11.140625q-2.46875 17.125 -6.8125 27.125q-4.328125 10.0 -11.515625 10.0q-3.40625 0 -5.546875 -2.109375q-2.125 -2.09375 -2.125 -5.484375q0 -3.140625 1.421875 -6.40625q1.4375 -3.265625 5.328125 -7.5q3.90625 -4.234375 11.046875 -9.6875l0.203125 -1.546875q0.46875 -2.453125 1.0625 -7.0625q-1.328125 4.796875 -3.734375 7.296875q-2.390625 2.5 -5.0625 2.5q-3.0 0 -4.90625 -2.765625q-1.890625 -2.765625 -1.890625 -6.890625q0 -5.0 0.65625 -9.15625q0.671875 -4.171875 2.203125 -8.84375q0.671875 -2.0 1.859375 -2.859375q1.203125 -0.875 3.8125 -0.875q1.46875 0 2.03125 0.46875q0.5625 0.46875 0.5625 1.390625q0 0.546875 -0.734375 3.609375q-0.65625 2.46875 -1.0625 4.46875q-0.53125 2.734375 -0.9375 5.234375q-0.390625 2.5 -0.390625 4.09375q0 2.53125 1.390625 2.53125q1.0 0 2.5 -2.0q1.5 -2.0 3.203125 -6.0625q1.703125 -4.0625 3.296875 -10.0q0.53125 -2.0 1.625 -2.859375q1.109375 -0.875 3.3125 -0.875zm-18.40625 54.921875q1.671875 0 3.734375 -3.875q2.078125 -3.859375 4.140625 -12.859375q-5.140625 4.34375 -7.4375 7.90625q-2.296875 3.5625 -2.296875 6.234375q0 1.125 0.421875 1.859375q0.4375 0.734375 1.4375 0.734375z" fill-rule="nonzero"/><path fill="#000000" d="m105.31972 48.953125q-0.21875 4.0625 -3.25 4.0625q-2.796875 0 -2.796875 -3.21875q0 -0.625 -0.109375 -2.28125l-0.09375 -2.734375q-5.140625 0.625 -8.234375 2.890625q-2.890625 2.125 -4.8125 6.390625l0.0625 17.828125q0 3.296875 -3.21875 3.296875q-2.859375 0 -2.859375 -3.296875l0 -22.84375q0 -1.078125 0.078125 -3.21875q0.078125 -2.15625 0.078125 -3.234375q0 -3.28125 2.859375 -3.28125q3.1875 0 3.21875 5.40625q6.25 -6.015625 13.875 -6.015625q2.640625 0 3.9375 1.984375q1.296875 1.984375 1.296875 5.984375q0 1.6875 -0.03125 2.28125zm21.901245 25.546875q-7.34375 0 -11.90625 -3.6875q-4.984375 -4.0625 -4.984375 -11.390625q0 -8.453125 4.109375 -14.1875q4.453125 -6.25 11.90625 -6.25q5.40625 0 8.828125 1.828125q4.1875 2.25 4.1875 6.90625q0 3.25 -3.671875 5.921875q-1.625 1.171875 -6.90625 3.640625l-12.421875 5.890625q1.8125 2.703125 4.53125 4.078125q2.71875 1.359375 6.328125 1.359375q2.25 0 5.28125 -0.84375q3.84375 -1.078125 4.9375 -2.8125q1.109375 -1.75 2.375 -1.75q1.140625 0 2.03125 0.859375q0.90625 0.859375 0.90625 2.0q0 3.625 -5.828125 6.21875q-4.984375 2.21875 -9.703125 2.21875zm-0.875 -29.65625q-3.96875 0 -6.609375 3.078125q-2.640625 3.078125 -3.9375 9.265625l10.0 -4.75q5.890625 -2.875 8.390625 -4.984375q-2.796875 -2.609375 -7.84375 -2.609375zm44.064606 -17.609375q-7.875 0 -8.8125 10.9375l-0.09375 2.015625q5.53125 -0.390625 7.15625 -0.390625q5.171875 0 5.171875 3.265625q0 2.375 -2.53125 2.828125q-1.109375 0.1875 -2.59375 0.140625q-1.484375 -0.046875 -7.5 0.4375l-0.265625 7.421875q0 2.015625 0.125 6.0625q0.140625 4.03125 0.140625 6.015625q0 6.1875 -0.71875 9.640625q-0.546875 2.59375 -3.03125 2.59375q-1.328125 0 -2.28125 -0.859375q-0.9375 -0.859375 -0.9375 -2.15625q0 -0.265625 0.0625 -0.65625q0.6875 -4.234375 0.6875 -9.21875l-0.09375 -8.875l0 -9.4375q-4.078125 0.328125 -5.140625 0.328125q-3.296875 0 -3.296875 -3.171875q0 -3.21875 5.703125 -3.375l3.125 -0.09375q0.09375 -1.828125 0.484375 -4.953125q0.84375 -7.21875 3.640625 -10.640625q3.390625 -4.140625 10.578125 -4.140625q4.65625 0 4.65625 3.15625q0 3.125 -4.234375 3.125zm18.225174 4.5625q-1.5625 0 -2.703125 -1.109375q-1.125 -1.109375 -1.125 -2.671875q0 -1.5625 1.125 -2.65625q1.140625 -1.109375 2.703125 -1.109375q1.5625 0 2.6875 1.109375q1.125 1.09375 1.125 2.65625q0 1.5625 -1.125 2.671875q-1.125 1.109375 -2.6875 1.109375zm1.46875 26.421875q0 1.953125 0.109375 5.84375q0.125 3.890625 0.125 5.84375q0 1.4375 -0.890625 2.34375q-0.875 0.90625 -2.296875 0.90625q-1.40625 0 -2.3125 -0.90625q-0.890625 -0.90625 -0.890625 -2.34375q0 -1.953125 -0.109375 -5.84375q-0.109375 -3.890625 -0.109375 -5.84375q0 -3.046875 0.328125 -7.625q0.328125 -4.578125 0.328125 -7.640625q0 -1.453125 0.890625 -2.359375q0.890625 -0.921875 2.296875 -0.921875q1.390625 0 2.28125 0.921875q0.90625 0.90625 0.90625 2.359375q0 3.0625 -0.328125 7.640625q-0.328125 4.578125 -0.328125 7.625zm35.963226 17.09375q-2.796875 0 -3.15625 -3.0625l-0.90625 -7.125q-0.453125 -3.8125 -0.453125 -7.125q0 -0.921875 0.109375 -3.09375q0.109375 -2.1875 0.109375 -3.09375q0 -7.03125 -2.59375 -7.03125q-3.65625 0 -6.96875 4.328125q-3.0 3.9375 -4.6875 9.953125q-0.0625 1.28125 -0.296875 3.203125q-0.1875 1.625 -0.1875 3.15625q0 0.96875 0.1875 2.921875q0.203125 1.953125 0.203125 2.9375q0 1.453125 -0.90625 2.359375q-0.890625 0.921875 -2.28125 0.921875q-1.4375 0 -2.328125 -0.921875q-0.875 -0.90625 -0.875 -2.359375q0 -0.984375 -0.21875 -2.9375q-0.203125 -1.953125 -0.203125 -2.921875q0 -3.359375 0.46875 -9.296875q0.484375 -5.9375 0.484375 -9.296875q0 -1.03125 -0.125 -3.078125q-0.109375 -2.0625 -0.109375 -3.109375q0 -1.390625 0.921875 -2.28125q0.9375 -0.90625 2.296875 -0.90625q3.0 0 3.296875 4.234375l0.09375 3.8125q5.46875 -7.296875 11.234375 -7.296875q5.203125 0 7.25 4.59375q1.40625 3.0625 1.53125 9.046875l0 3.28125l-0.03125 3.03125q0 2.703125 0.703125 6.984375q0.703125 4.28125 0.703125 6.953125q0 1.421875 -0.9375 2.3125q-0.921875 0.90625 -2.328125 0.90625zm25.124756 -0.8125q-7.34375 0 -11.90625 -3.6875q-4.984375 -4.0625 -4.984375 -11.390625q0 -8.453125 4.109375 -14.1875q4.453125 -6.25 11.90625 -6.25q5.40625 0 8.828125 1.828125q4.1875 2.25 4.1875 6.90625q0 3.25 -3.671875 5.921875q-1.625 1.171875 -6.90625 3.640625l-12.421875 5.890625q1.8125 2.703125 4.53125 4.078125q2.71875 1.359375 6.328125 1.359375q2.25 0 5.28125 -0.84375q3.84375 -1.078125 4.9375 -2.8125q1.109375 -1.75 2.375 -1.75q1.140625 0 2.03125 0.859375q0.90625 0.859375 0.90625 2.0q0 3.625 -5.828125 6.21875q-4.984375 2.21875 -9.703125 2.21875zm-0.875 -29.65625q-3.96875 0 -6.609375 3.078125q-2.640625 3.078125 -3.9375 9.265625l10.0 -4.75q5.890625 -2.875 8.390625 -4.984375q-2.796875 -2.609375 -7.84375 -2.609375zm37.39273 29.515625q-4.96875 0 -9.046875 -1.9375q-1.03125 1.546875 -2.53125 1.546875q-1.234375 0 -2.109375 -0.859375q-0.859375 -0.859375 -0.859375 -2.15625q0 -0.84375 0.078125 -2.5q0.09375 -1.671875 0.09375 -2.515625q0 -3.453125 -0.1875 -10.328125q-0.171875 -6.890625 -0.171875 -10.34375q0 -2.375 0.03125 -9.0q0.03125 -6.625 0.03125 -9.03125q0 -1.953125 0.8125 -3.515625q1.078125 -1.984375 2.953125 -1.984375q2.453125 0 2.453125 2.828125q0 0.46875 -0.171875 1.34375q-0.15625 0.875 -0.15625 1.328125l-0.09375 7.125l-0.078125 8.3125q2.84375 -1.921875 5.390625 -2.875q2.5625 -0.96875 4.796875 -0.96875q7.0 0 11.359375 5.375q4.109375 5.03125 4.109375 12.390625q0 7.421875 -4.796875 12.59375q-4.78125 5.171875 -11.90625 5.171875zm1.234375 -29.375q-2.65625 0 -5.453125 1.484375q-1.375 0.75 -4.6875 3.234375l-0.078125 5.625l0.03125 5.078125l0.046875 5.328125q1.5625 0.71875 4.390625 1.828125q2.015625 0.625 4.515625 0.625q4.71875 0 7.75 -3.3125q3.03125 -3.328125 3.03125 -8.28125q0 -4.84375 -2.4375 -8.109375q-2.640625 -3.5 -7.109375 -3.5zm29.325836 -13.1875q-1.5625 0 -2.703125 -1.109375q-1.125 -1.109375 -1.125 -2.671875q0 -1.5625 1.125 -2.65625q1.140625 -1.109375 2.703125 -1.109375q1.5625 0 2.6875 1.109375q1.125 1.09375 1.125 2.65625q0 1.5625 -1.125 2.671875q-1.125 1.109375 -2.6875 1.109375zm1.46875 26.421875q0 1.953125 0.109375 5.84375q0.125 3.890625 0.125 5.84375q0 1.4375 -0.890625 2.34375q-0.875 0.90625 -2.296875 0.90625q-1.40625 0 -2.3125 -0.90625q-0.890625 -0.90625 -0.890625 -2.34375q0 -1.953125 -0.109375 -5.84375q-0.109375 -3.890625 -0.109375 -5.84375q0 -3.046875 0.328125 -7.625q0.328125 -4.578125 0.328125 -7.640625q0 -1.453125 0.890625 -2.359375q0.890625 -0.921875 2.296875 -0.921875q1.390625 0 2.28125 0.921875q0.90625 0.90625 0.90625 2.359375q0 3.0625 -0.328125 7.640625q-0.328125 4.578125 -0.328125 7.625zm23.213257 16.703125q-5.46875 0 -9.40625 -4.03125q-4.40625 -4.5 -4.625 -12.078125q-0.203125 -7.359375 3.703125 -12.953125q4.5625 -6.609375 12.703125 -6.609375q6.5 0 9.859375 5.953125q2.671875 4.8125 2.5625 11.59375q-0.09375 7.21875 -3.765625 12.328125q-4.171875 5.796875 -11.03125 5.796875zm1.953125 -29.0625q-4.796875 -0.03125 -7.453125 4.546875q-2.125 3.6875 -2.125 8.40625q0 4.71875 2.578125 7.359375q2.140625 2.171875 5.046875 2.171875q3.375 0 5.828125 -2.46875q2.765625 -2.734375 2.921875 -7.390625q0.453125 -12.59375 -6.796875 -12.625z" fill-rule="nonzero"/></g></svg>